<mxfile host="app.diagrams.net" agent="Mozilla/5.0 (Windows NT 10.0; Win64; x64) AppleWebKit/537.36 (KHTML, like Gecko) Chrome/138.0.0.0 Safari/537.36" version="28.0.4">
  <diagram name="Halaman-1" id="E5cZMdCsvft8JGnmLrMt">
    <mxGraphModel dx="1426" dy="777" grid="1" gridSize="10" guides="1" tooltips="1" connect="1" arrows="1" fold="1" page="1" pageScale="1" pageWidth="827" pageHeight="1169" math="0" shadow="0">
      <root>
        <mxCell id="0" />
        <mxCell id="1" parent="0" />
        <mxCell id="Uf99ch3WYMbC0wWUNkMv-30" value="" style="rounded=0;whiteSpace=wrap;html=1;" vertex="1" parent="1">
          <mxGeometry x="70" y="130" width="640" height="290" as="geometry" />
        </mxCell>
        <mxCell id="Uf99ch3WYMbC0wWUNkMv-31" value="" style="edgeStyle=orthogonalEdgeStyle;rounded=0;orthogonalLoop=1;jettySize=auto;html=1;dashed=1;dashPattern=8 8;" edge="1" parent="1" source="Uf99ch3WYMbC0wWUNkMv-32" target="Uf99ch3WYMbC0wWUNkMv-33">
          <mxGeometry relative="1" as="geometry" />
        </mxCell>
        <mxCell id="Uf99ch3WYMbC0wWUNkMv-32" value="&lt;i&gt;Mobile Apps&lt;/i&gt;" style="rounded=1;whiteSpace=wrap;html=1;" vertex="1" parent="1">
          <mxGeometry x="280" y="207.5" width="60" height="125" as="geometry" />
        </mxCell>
        <mxCell id="Uf99ch3WYMbC0wWUNkMv-33" value="&lt;i&gt;API&lt;/i&gt;" style="rounded=1;whiteSpace=wrap;html=1;" vertex="1" parent="1">
          <mxGeometry x="430" y="250" width="80" height="40" as="geometry" />
        </mxCell>
        <mxCell id="Uf99ch3WYMbC0wWUNkMv-34" value="&lt;i&gt;Data&lt;/i&gt;&lt;div&gt;&lt;i&gt;Base&lt;/i&gt;&lt;/div&gt;" style="shape=cylinder3;whiteSpace=wrap;html=1;boundedLbl=1;backgroundOutline=1;size=15;" vertex="1" parent="1">
          <mxGeometry x="640" y="230" width="60" height="80" as="geometry" />
        </mxCell>
        <mxCell id="Uf99ch3WYMbC0wWUNkMv-35" value="Analisis Data" style="rounded=1;whiteSpace=wrap;html=1;" vertex="1" parent="1">
          <mxGeometry x="410" y="140" width="120" height="50" as="geometry" />
        </mxCell>
        <mxCell id="Uf99ch3WYMbC0wWUNkMv-36" value="&lt;i&gt;Dashboard&lt;/i&gt;" style="rounded=1;whiteSpace=wrap;html=1;" vertex="1" parent="1">
          <mxGeometry x="410" y="346" width="120" height="50" as="geometry" />
        </mxCell>
        <mxCell id="Uf99ch3WYMbC0wWUNkMv-37" value="" style="group" vertex="1" connectable="0" parent="1">
          <mxGeometry x="80" y="180" width="130" height="180" as="geometry" />
        </mxCell>
        <mxCell id="Uf99ch3WYMbC0wWUNkMv-38" value="&lt;div&gt;&lt;br&gt;&lt;/div&gt;&lt;div&gt;&lt;br&gt;&lt;/div&gt;Perangkat Keras&lt;div&gt;&lt;br&gt;&lt;/div&gt;&lt;div&gt;&lt;br&gt;&lt;/div&gt;&lt;div&gt;&lt;br&gt;&lt;/div&gt;&lt;div&gt;&lt;br&gt;&lt;/div&gt;&lt;div&gt;&lt;br&gt;&lt;/div&gt;&lt;div&gt;&lt;br&gt;&lt;/div&gt;&lt;div&gt;&lt;br&gt;&lt;/div&gt;&lt;div&gt;&lt;br&gt;&lt;/div&gt;&lt;div&gt;&lt;br&gt;&lt;/div&gt;&lt;div&gt;&lt;br&gt;&lt;/div&gt;&lt;div&gt;&lt;br&gt;&lt;/div&gt;&lt;div&gt;&lt;br&gt;&lt;/div&gt;" style="rounded=1;whiteSpace=wrap;html=1;" vertex="1" parent="Uf99ch3WYMbC0wWUNkMv-37">
          <mxGeometry width="130" height="180" as="geometry" />
        </mxCell>
        <mxCell id="Uf99ch3WYMbC0wWUNkMv-39" value="Timbangan" style="rounded=1;whiteSpace=wrap;html=1;" vertex="1" parent="Uf99ch3WYMbC0wWUNkMv-37">
          <mxGeometry x="21.666666666666664" y="34.285714285714285" width="86.66666666666666" height="51.42857142857142" as="geometry" />
        </mxCell>
        <mxCell id="Uf99ch3WYMbC0wWUNkMv-40" value="&lt;i&gt;Infantometer&lt;/i&gt;" style="rounded=1;whiteSpace=wrap;html=1;" vertex="1" parent="Uf99ch3WYMbC0wWUNkMv-37">
          <mxGeometry x="21.666666666666664" y="94.28571428571428" width="86.66666666666666" height="51.42857142857142" as="geometry" />
        </mxCell>
        <mxCell id="Uf99ch3WYMbC0wWUNkMv-41" style="edgeStyle=orthogonalEdgeStyle;rounded=0;orthogonalLoop=1;jettySize=auto;html=1;exitX=1;exitY=0.5;exitDx=0;exitDy=0;entryX=0;entryY=0.5;entryDx=0;entryDy=0;dashed=1;dashPattern=8 8;" edge="1" parent="1" source="Uf99ch3WYMbC0wWUNkMv-38" target="Uf99ch3WYMbC0wWUNkMv-32">
          <mxGeometry relative="1" as="geometry" />
        </mxCell>
        <mxCell id="Uf99ch3WYMbC0wWUNkMv-42" value="BLE Connection" style="text;html=1;align=center;verticalAlign=middle;whiteSpace=wrap;rounded=0;fontStyle=2" vertex="1" parent="1">
          <mxGeometry x="214" y="233" width="60" height="30" as="geometry" />
        </mxCell>
        <mxCell id="Uf99ch3WYMbC0wWUNkMv-43" value="HTTP Get&lt;div&gt;HTTP Post&lt;/div&gt;" style="text;html=1;align=center;verticalAlign=middle;whiteSpace=wrap;rounded=0;fontStyle=2" vertex="1" parent="1">
          <mxGeometry x="480" y="302.5" width="70" height="30" as="geometry" />
        </mxCell>
        <mxCell id="Uf99ch3WYMbC0wWUNkMv-44" value="" style="endArrow=classic;startArrow=classic;html=1;rounded=0;exitX=0.5;exitY=1;exitDx=0;exitDy=0;entryX=0.5;entryY=0;entryDx=0;entryDy=0;dashed=1;dashPattern=8 8;" edge="1" parent="1" source="Uf99ch3WYMbC0wWUNkMv-33" target="Uf99ch3WYMbC0wWUNkMv-36">
          <mxGeometry width="50" height="50" relative="1" as="geometry">
            <mxPoint x="520" y="350" as="sourcePoint" />
            <mxPoint x="430" y="340" as="targetPoint" />
          </mxGeometry>
        </mxCell>
        <mxCell id="Uf99ch3WYMbC0wWUNkMv-45" value="" style="endArrow=classic;startArrow=classic;html=1;rounded=0;exitX=1;exitY=0.5;exitDx=0;exitDy=0;dashed=1;dashPattern=8 8;" edge="1" parent="1" source="Uf99ch3WYMbC0wWUNkMv-33" target="Uf99ch3WYMbC0wWUNkMv-34">
          <mxGeometry width="50" height="50" relative="1" as="geometry">
            <mxPoint x="520" y="280" as="sourcePoint" />
            <mxPoint x="580" y="260" as="targetPoint" />
          </mxGeometry>
        </mxCell>
        <mxCell id="Uf99ch3WYMbC0wWUNkMv-46" value="" style="endArrow=classic;startArrow=classic;html=1;rounded=0;dashed=1;dashPattern=8 8;entryX=0.5;entryY=0;entryDx=0;entryDy=0;" edge="1" parent="1" source="Uf99ch3WYMbC0wWUNkMv-35" target="Uf99ch3WYMbC0wWUNkMv-33">
          <mxGeometry width="50" height="50" relative="1" as="geometry">
            <mxPoint x="469.5" y="180" as="sourcePoint" />
            <mxPoint x="470" y="220" as="targetPoint" />
          </mxGeometry>
        </mxCell>
        <mxCell id="Uf99ch3WYMbC0wWUNkMv-47" value="HTTP Request" style="text;html=1;align=center;verticalAlign=middle;whiteSpace=wrap;rounded=0;fontStyle=2" vertex="1" parent="1">
          <mxGeometry x="360" y="233" width="60" height="30" as="geometry" />
        </mxCell>
        <mxCell id="Uf99ch3WYMbC0wWUNkMv-48" value="Function Call" style="text;html=1;align=center;verticalAlign=middle;whiteSpace=wrap;rounded=0;fontStyle=2" vertex="1" parent="1">
          <mxGeometry x="464" y="207.5" width="90" height="30" as="geometry" />
        </mxCell>
        <mxCell id="Uf99ch3WYMbC0wWUNkMv-49" value="Query (Insert, Get)" style="text;html=1;align=center;verticalAlign=middle;whiteSpace=wrap;rounded=0;fontStyle=2" vertex="1" parent="1">
          <mxGeometry x="540" y="237.5" width="70" height="30" as="geometry" />
        </mxCell>
      </root>
    </mxGraphModel>
  </diagram>
</mxfile>
